<svg id="Layer_2" data-name="Layer 2" xmlns="http://www.w3.org/2000/svg" viewBox="0 0 144.66 53.93"><defs><style>.cls-1{fill:#4f3276;}.cls-2{fill:none;}.cls-3{fill:#d4aa02;}</style></defs><title>Artboard 3</title><polygon class="cls-1" points="7.41 41.19 7.41 12.36 11.83 12.36 11.83 25.35 21.44 12.36 26.11 12.36 16.5 25.61 27.15 41.19 21.7 41.19 13.9 29.5 11.83 32.1 11.83 41.19 7.41 41.19"/><path class="cls-1" d="M42.59,38.27c-6.05,0-10.46-5.09-10.5-11.13a10.44,10.44,0,0,1,15.33-9.53l0-4.31a14.84,14.84,0,1,0,.2,28l0-4.31A10.31,10.31,0,0,1,42.59,38.27Z"/><path class="cls-1" d="M100.23,13.37c-8.87,0-14.69,6.68-14.69,14.93s5.82,14.93,14.69,14.93,13.66-6.68,13.66-14.93S109.09,13.37,100.23,13.37Zm0,25.52c-6.54,0-9.9-4.78-9.9-10.85s3.36-10.8,9.9-10.8,8.87,5,8.87,11.06S106.76,38.89,100.23,38.89Z"/><path class="cls-2" d="M100.23,15.68c-6.54,0-9.9,6.28-9.9,12.36s3.43,10.85,10,10.85,8.81-4.51,8.81-10.59S106.76,15.68,100.23,15.68Z"/><path class="cls-1" d="M66.4,51.7v0a2.94,2.94,0,0,0-.51,0Z"/><path class="cls-1" d="M66.52,40.13V52.48H54.19v-.39S53.61,48,64.59,48V42.88s-10-1.18-10-9.8V24.46a1.59,1.59,0,0,1-1.35-1.57,1.33,1.33,0,0,1,1.35-1.37V20.34s.19-1,1.54-1,1.34,1,1.34,1l.2,11.56s-.44,8.23,8.47,8.23Z"/><path class="cls-1" d="M66.32,40.13V52.48H78.65v-.39S79.22,48,68.25,48V42.88s10-1.18,10-9.8V24.46a1.59,1.59,0,0,0,1.35-1.57,1.33,1.33,0,0,0-1.35-1.37V20.34s-.19-1-1.54-1-1.35,1-1.35,1L75.18,31.9s.44,8.23-8.47,8.23Z"/><path class="cls-1" d="M66.42,1.61V20.12H58.91v-9.5a10.57,10.57,0,0,1,1.17-4.91A7.07,7.07,0,0,1,66.42,1.61Z"/><path class="cls-1" d="M73.93,10.62v9.5H66.42V1.61a7.07,7.07,0,0,1,6.34,4.1A10.57,10.57,0,0,1,73.93,10.62Z"/><path class="cls-1" d="M66.42,38.36V19.85H58.91v9.5a10.55,10.55,0,0,0,1.17,4.91A7.07,7.07,0,0,0,66.42,38.36Z"/><path class="cls-1" d="M73.93,29.35v-9.5H63.12V37.32l3.3,1a7.07,7.07,0,0,0,6.34-4.1A10.55,10.55,0,0,0,73.93,29.35Z"/><path class="cls-3" d="M58.91,20.12s1,1.94,7.41,1.92,7.61-1.92,7.61-1.92l0-10.07s-.46-8.41-7.13-8.42-7.87,6.66-7.87,8.18Z"/><path class="cls-3" d="M54.58,24.46a1.57,1.57,0,0,1-1.35-1.57,1.31,1.31,0,0,1,1.35-1.37Z"/><path class="cls-3" d="M78.26,24.46a1.57,1.57,0,0,0,1.35-1.57,1.31,1.31,0,0,0-1.35-1.37Z"/><polygon class="cls-1" points="117.42 12.82 122.16 12.82 122.16 25.57 131.87 25.57 131.87 12.82 136.9 12.82 136.9 42.57 131.87 42.57 131.87 29.29 122.16 29.29 122.16 42.57 117.42 42.57 117.42 12.82"/></svg>