<svg id="Layer_2" data-name="Layer 2" xmlns="http://www.w3.org/2000/svg" viewBox="0 0 130.06 45.02"><defs><style>.cls-1,.cls-3{fill:#4f3276;}.cls-2{fill:#d4aa02;}.cls-3{font-size:30.62px;font-family:Montserrat-Bold, Montserrat;font-weight:700;}.cls-4{letter-spacing:-0.03em;}</style></defs><title>Artboard 6</title><path class="cls-1" d="M62.24,43.08v0a3.13,3.13,0,0,0-.43,0Z"/><path class="cls-1" d="M62.33,33.44V43.73H52.07V43.4S51.59,40,60.73,40V35.73s-8.34-1-8.34-8.16V20.39a1.31,1.31,0,0,1-1.12-1.3A1.1,1.1,0,0,1,52.39,18V17a1.17,1.17,0,0,1,1.28-.82c1.12,0,1.12.82,1.12.82L55,26.59s-.36,6.86,7.06,6.86Z"/><path class="cls-1" d="M62.17,33.44V43.73H72.43V43.4S72.91,40,63.77,40V35.73s8.34-1,8.34-8.16V20.39a1.31,1.31,0,0,0,1.12-1.3A1.1,1.1,0,0,0,72.11,18V17a1.17,1.17,0,0,0-1.28-.82c-1.12,0-1.12.82-1.12.82l-.16,9.62s.36,6.86-7.06,6.86Z"/><path class="cls-1" d="M62.25,1.37V16.79H56V8.87a8.73,8.73,0,0,1,1-4.08A5.89,5.89,0,0,1,62.25,1.37Z"/><path class="cls-1" d="M68.5,8.87v7.92H62.25V1.37a5.89,5.89,0,0,1,5.28,3.42A8.73,8.73,0,0,1,68.5,8.87Z"/><path class="cls-1" d="M62.25,32V16.56H56v7.91a8.77,8.77,0,0,0,1,4.09A5.9,5.9,0,0,0,62.25,32Z"/><path class="cls-1" d="M68.5,24.47V16.56h-9V31.1l2.75.88a5.9,5.9,0,0,0,5.28-3.42A8.77,8.77,0,0,0,68.5,24.47Z"/><path class="cls-2" d="M56,16.79s.82,1.61,6.17,1.59,6.33-1.59,6.33-1.59V8.4s-.38-7-5.94-7S56,6.93,56,8.2Z"/><path class="cls-2" d="M52.39,20.39a1.29,1.29,0,0,1-1.12-1.3A1.09,1.09,0,0,1,52.39,18Z"/><path class="cls-2" d="M72.11,20.39a1.29,1.29,0,0,0,1.12-1.3A1.09,1.09,0,0,0,72.11,18Z"/><text class="cls-3" transform="translate(-2.42 34.15)"><tspan class="cls-4">K</tspan><tspan x="21.9" y="0">C</tspan></text><text class="cls-3" transform="translate(81.94 34.15)">OH</text></svg>