<svg id="Layer_2" data-name="Layer 2" xmlns="http://www.w3.org/2000/svg" viewBox="0 0 144.66 53.93"><defs><style>.cls-1{fill:#4f3276;}.cls-2{fill:none;stroke:#d4aa02;stroke-miterlimit:10;}</style></defs><title>Artboard 10</title><path class="cls-1" d="M6.63,14.88l-2,2.06v3.71H1.28V6H4.66v6.87L11.17,6H15L8.86,12.51l6.45,8.14h-4Z"/><path class="cls-1" d="M26.64,10.45a5,5,0,0,1,1.29,3.74v6.46H24.65v-6a2.88,2.88,0,0,0-.59-2,2.13,2.13,0,0,0-1.7-.67,2.61,2.61,0,0,0-2,.77,3.17,3.17,0,0,0-.74,2.28v5.58H16.38V9.36h3.13v1.32a4.28,4.28,0,0,1,1.61-1.1,5.63,5.63,0,0,1,2.12-.39A4.67,4.67,0,0,1,26.64,10.45Z"/><path class="cls-1" d="M33.19,20.08A5.55,5.55,0,0,1,31,18a5.7,5.7,0,0,1-.8-3,5.74,5.74,0,0,1,.8-3,5.55,5.55,0,0,1,2.22-2.07,7.27,7.27,0,0,1,6.39,0A5.59,5.59,0,0,1,41.79,12a5.74,5.74,0,0,1,.8,3,5.7,5.7,0,0,1-.8,3,5.59,5.59,0,0,1-2.21,2.07,7.27,7.27,0,0,1-6.39,0Zm5.27-2.8A3.14,3.14,0,0,0,39.27,15a3.15,3.15,0,0,0-.81-2.28,2.72,2.72,0,0,0-2.07-.85,2.76,2.76,0,0,0-2.08.85A3.15,3.15,0,0,0,33.49,15a3.14,3.14,0,0,0,.82,2.27,2.76,2.76,0,0,0,2.08.85A2.72,2.72,0,0,0,38.46,17.28Z"/><path class="cls-1" d="M51.59,20.65l-2.47-3.46-2.57,3.46H43L47.33,15l-4.2-5.6h3.68l2.39,3.29,2.46-3.29h3.48l-4.2,5.52,4.37,5.77Z"/><path class="cls-1" d="M66.05,19.93a7.22,7.22,0,0,1-2.85-2.71,7.39,7.39,0,0,1-1-3.92,7.38,7.38,0,0,1,1-3.91,7.22,7.22,0,0,1,2.85-2.71,8.5,8.5,0,0,1,4.09-1,8.7,8.7,0,0,1,3.45.67,6.94,6.94,0,0,1,2.59,1.94l-2.18,2A4.69,4.69,0,0,0,70.3,8.6a4.86,4.86,0,0,0-2.43.6,4.19,4.19,0,0,0-1.67,1.67,4.86,4.86,0,0,0-.6,2.43,4.9,4.9,0,0,0,.6,2.44,4.26,4.26,0,0,0,1.67,1.67,4.86,4.86,0,0,0,2.43.6A4.68,4.68,0,0,0,74,16.27l2.18,2a6.62,6.62,0,0,1-2.6,1.95,8.61,8.61,0,0,1-3.46.68A8.47,8.47,0,0,1,66.05,19.93Z"/><path class="cls-1" d="M80,20.08A5.55,5.55,0,0,1,77.8,18a5.7,5.7,0,0,1-.8-3,5.74,5.74,0,0,1,.8-3A5.55,5.55,0,0,1,80,9.93a7.27,7.27,0,0,1,6.39,0A5.65,5.65,0,0,1,88.62,12a5.73,5.73,0,0,1,.79,3,5.54,5.54,0,0,1-3,5.07,7.27,7.27,0,0,1-6.39,0Zm5.27-2.8A3.14,3.14,0,0,0,86.1,15a3.15,3.15,0,0,0-.81-2.28,2.72,2.72,0,0,0-2.07-.85,2.76,2.76,0,0,0-2.08.85A3.11,3.11,0,0,0,80.32,15a3.1,3.1,0,0,0,.82,2.27,2.76,2.76,0,0,0,2.08.85A2.72,2.72,0,0,0,85.29,17.28Z"/><path class="cls-1" d="M91.6,5.07h3.27V20.65H91.6Z"/><path class="cls-1" d="M97.92,5.07h3.28V20.65H97.92Z"/><path class="cls-1" d="M115.24,15.93H106.7a2.63,2.63,0,0,0,1.09,1.66,3.58,3.58,0,0,0,2.14.61,4.49,4.49,0,0,0,1.57-.26,4.15,4.15,0,0,0,1.27-.83L114.51,19a5.89,5.89,0,0,1-4.66,1.82,7.44,7.44,0,0,1-3.38-.74A5.49,5.49,0,0,1,104.2,18a5.7,5.7,0,0,1-.8-3,5.75,5.75,0,0,1,.79-3,5.47,5.47,0,0,1,2.16-2.08,6.74,6.74,0,0,1,6.08,0,5.2,5.2,0,0,1,2.11,2,6.12,6.12,0,0,1,.77,3.1S115.29,15.38,115.24,15.93Zm-7.66-3.63a2.73,2.73,0,0,0-.93,1.72h5.57a2.68,2.68,0,0,0-.92-1.71,2.76,2.76,0,0,0-1.85-.64A2.82,2.82,0,0,0,107.58,12.3Z"/><path class="cls-1" d="M129.15,9.36v9.4a6,6,0,0,1-1.62,4.62,6.67,6.67,0,0,1-4.73,1.52,12,12,0,0,1-3.1-.4,6.75,6.75,0,0,1-2.44-1.16l1.3-2.35a5.61,5.61,0,0,0,1.81.94,7.18,7.18,0,0,0,2.18.34,3.54,3.54,0,0,0,2.51-.76,3.08,3.08,0,0,0,.81-2.33V18.7a4.57,4.57,0,0,1-3.57,1.41,6.09,6.09,0,0,1-2.85-.68,5.19,5.19,0,0,1-2-1.93,5.28,5.28,0,0,1-.76-2.85,5.34,5.34,0,0,1,.76-2.86,5.24,5.24,0,0,1,2-1.92,6.09,6.09,0,0,1,2.85-.68A4.49,4.49,0,0,1,126,10.81V9.36Zm-4.07,7.29a2.56,2.56,0,0,0,.83-2,2.58,2.58,0,0,0-.83-2,3,3,0,0,0-2.13-.76,3,3,0,0,0-2.14.76,2.59,2.59,0,0,0-.84,2,2.57,2.57,0,0,0,.84,2,3,3,0,0,0,2.14.77A3,3,0,0,0,125.08,16.65Z"/><path class="cls-1" d="M143.19,15.93h-8.54a2.67,2.67,0,0,0,1.09,1.66,3.58,3.58,0,0,0,2.14.61,4.49,4.49,0,0,0,1.57-.26,4.15,4.15,0,0,0,1.27-.83L142.46,19a5.88,5.88,0,0,1-4.66,1.82,7.44,7.44,0,0,1-3.38-.74A5.49,5.49,0,0,1,132.15,18a5.7,5.7,0,0,1-.8-3,5.75,5.75,0,0,1,.79-3,5.47,5.47,0,0,1,2.16-2.08,6.74,6.74,0,0,1,6.08,0,5.2,5.2,0,0,1,2.11,2,6.12,6.12,0,0,1,.77,3.1S143.24,15.38,143.19,15.93Zm-7.66-3.63a2.68,2.68,0,0,0-.92,1.72h5.56a2.68,2.68,0,0,0-.92-1.71,2.76,2.76,0,0,0-1.85-.64A2.82,2.82,0,0,0,135.53,12.3Z"/><path class="cls-1" d="M11.1,46.92A7.26,7.26,0,0,1,8.22,44.2a7.81,7.81,0,0,1,0-7.79,7.26,7.26,0,0,1,2.88-2.72,8.54,8.54,0,0,1,4.12-1,8.51,8.51,0,0,1,4.12,1,7.49,7.49,0,0,1,0,13.23,8.51,8.51,0,0,1-4.12,1A8.54,8.54,0,0,1,11.1,46.92Zm6.47-2.51a4.34,4.34,0,0,0,1.65-1.67,5.24,5.24,0,0,0,0-4.87,4.27,4.27,0,0,0-1.65-1.67,4.9,4.9,0,0,0-4.7,0,4.27,4.27,0,0,0-1.65,1.67,5.24,5.24,0,0,0,0,4.87,4.34,4.34,0,0,0,1.65,1.67,4.9,4.9,0,0,0,4.7,0Z"/><path class="cls-1" d="M30.31,36.61a5.9,5.9,0,0,1,2.3-.42v3l-.73,0a3,3,0,0,0-2.21.79,3.18,3.18,0,0,0-.8,2.36v5.33H25.6V36.36h3.13v1.49A3.62,3.62,0,0,1,30.31,36.61Z"/><path class="cls-1" d="M43.09,37.44a4.77,4.77,0,0,1,1.41,3.77v6.44H41.43v-1.4c-.62,1-1.76,1.57-3.44,1.57a5.27,5.27,0,0,1-2.26-.44,3.34,3.34,0,0,1-1.46-1.22,3.1,3.1,0,0,1-.5-1.76A2.94,2.94,0,0,1,35,41.92a6.06,6.06,0,0,1,3.67-.9h2.6a2.1,2.1,0,0,0-.65-1.65,2.89,2.89,0,0,0-2-.58,5.67,5.67,0,0,0-1.78.29,4.8,4.8,0,0,0-1.48.76l-1.18-2.29a7.07,7.07,0,0,1,2.22-1,9.87,9.87,0,0,1,2.66-.36A5.89,5.89,0,0,1,43.09,37.44ZM40.3,45.23a2.12,2.12,0,0,0,.92-1.15V42.93H39q-2,0-2,1.32a1.17,1.17,0,0,0,.49,1,2.2,2.2,0,0,0,1.36.37A2.86,2.86,0,0,0,40.3,45.23Z"/><path class="cls-1" d="M47.46,32.07h3.27V47.65H47.46Z"/><path class="cls-1" d="M73.43,33v14.7H70v-6H63.35v6H60V33h3.4v5.8H70V33Z"/><path class="cls-1" d="M76.86,34.26a1.78,1.78,0,0,1,0-2.61,2,2,0,0,1,1.47-.52,2.16,2.16,0,0,1,1.47.5,1.65,1.65,0,0,1,.56,1.26,1.82,1.82,0,0,1-.56,1.36,2.09,2.09,0,0,1-1.47.53A2,2,0,0,1,76.86,34.26Zm-.17,2.1H80V47.65H76.69Z"/><path class="cls-1" d="M84.06,47.48a6.83,6.83,0,0,1-2.14-.88L83,44.25a6.43,6.43,0,0,0,1.83.79,7.72,7.72,0,0,0,2.1.3c1.38,0,2.08-.34,2.08-1a.73.73,0,0,0-.57-.7,8,8,0,0,0-1.74-.35,16.75,16.75,0,0,1-2.29-.49,3.51,3.51,0,0,1-1.57-1,2.77,2.77,0,0,1-.66-2,3.13,3.13,0,0,1,.62-1.9,4,4,0,0,1,1.81-1.29,7.64,7.64,0,0,1,2.8-.46,11.27,11.27,0,0,1,2.38.26,6.82,6.82,0,0,1,2,.73l-1.1,2.33a6.48,6.48,0,0,0-3.25-.84,3.42,3.42,0,0,0-1.58.29.87.87,0,0,0-.52.76.75.75,0,0,0,.57.73,10.24,10.24,0,0,0,1.8.4,19.49,19.49,0,0,1,2.27.49,3.44,3.44,0,0,1,1.53,1,2.69,2.69,0,0,1,.65,1.93,3,3,0,0,1-.63,1.87,4,4,0,0,1-1.83,1.27,8.24,8.24,0,0,1-2.87.45A11,11,0,0,1,84.06,47.48Z"/><path class="cls-1" d="M101.45,47.11a3.25,3.25,0,0,1-1.19.53,5.94,5.94,0,0,1-1.48.18,4.4,4.4,0,0,1-3.12-1,3.94,3.94,0,0,1-1.1-3V39.13H92.82V36.61h1.74V33.86h3.27v2.75h2.82v2.52H97.83v4.6a1.57,1.57,0,0,0,.37,1.1,1.36,1.36,0,0,0,1,.39,2.08,2.08,0,0,0,1.32-.42Z"/><path class="cls-1" d="M105.11,47.08a5.57,5.57,0,0,1-3-5.07,5.65,5.65,0,0,1,.8-3,5.59,5.59,0,0,1,2.21-2.07,7.29,7.29,0,0,1,6.4,0,5.62,5.62,0,0,1,2.2,2.07,6,6,0,0,1,0,6,5.62,5.62,0,0,1-2.2,2.07,7.29,7.29,0,0,1-6.4,0Zm5.27-2.8a3.6,3.6,0,0,0,0-4.55,2.72,2.72,0,0,0-2.07-.85,2.76,2.76,0,0,0-2.08.85,3.6,3.6,0,0,0,0,4.55,2.76,2.76,0,0,0,2.08.85A2.72,2.72,0,0,0,110.38,44.28Z"/><path class="cls-1" d="M121.41,36.61a5.86,5.86,0,0,1,2.3-.42v3l-.74,0a3,3,0,0,0-2.2.79,3.14,3.14,0,0,0-.8,2.36v5.33h-3.28V36.36h3.13v1.49A3.59,3.59,0,0,1,121.41,36.61Z"/><path class="cls-1" d="M137.27,36.36l-5.1,12a5.93,5.93,0,0,1-1.92,2.75,4.75,4.75,0,0,1-2.76.8,5.57,5.57,0,0,1-1.75-.28,3.81,3.81,0,0,1-1.4-.75l1.19-2.33a3,3,0,0,0,.87.52,2.66,2.66,0,0,0,1,.19,1.76,1.76,0,0,0,1.09-.32,2.74,2.74,0,0,0,.76-1.09l0-.1-4.89-11.38h3.38L130.93,44l3.19-7.66Z"/><line class="cls-2" x1="-3.7" y1="27.95" x2="157.74" y2="27.95"/></svg>